<?xml version="1.0" encoding="utf-8"?>
<!-- Svg Vector Icons : http://www.onlinewebfonts.com/icon -->
<!DOCTYPE svg PUBLIC "-//W3C//DTD SVG 1.1//EN" "http://www.w3.org/Graphics/SVG/1.1/DTD/svg11.dtd">
<svg version="1.1" xmlns="http://www.w3.org/2000/svg" xmlns:xlink="http://www.w3.org/1999/xlink" x="0px" y="0px" viewBox="0 0 1000 1000" enable-background="new 0 0 1000 1000" xml:space="preserve">
<metadata> Svg Vector Icons : http://www.onlinewebfonts.com/icon </metadata>
<g><path d="M153.5,258.4c191.4-191.2,501.8-191.2,693.1,0C1017,429,1035.5,694,902.3,885H97.7C-35.5,694-17,429,153.5,258.4z M542.9,714.3c24.6-10.8,41.3-32.3,46.6-56.7l235.6-102c14.8-6.4,21.8-23.9,15.3-38.6l-4.5-10.3c-6.2-14.8-23.8-21.6-38.6-15.3l-224.5,97.3c-22.4-26.9-60.5-37-94.1-22.5c-40.9,17.6-59.6,65.2-42,106.1C454.4,713.1,502,732,542.9,714.3z M170.8,675.1c27.4-27.4,27.4-71.8,0-99.1c-27.4-27.4-71.7-27.4-99.1,0c-27.4,27.4-27.4,71.7,0,99.1C99,702.5,143.4,702.4,170.8,675.1z M928.6,675.1c27.4-27.4,27.4-71.8,0-99.1s-71.8-27.4-99.1,0c-27.4,27.4-27.4,71.7,0,99.1C856.8,702.4,901.2,702.4,928.6,675.1z M290.1,357.6c0-38.6-31.4-70.1-70-70.1S150,319,150,357.6s31.4,70,70.1,70S290.1,396.3,290.1,357.6z M847.9,347.1c0-38.6-31.4-70.1-70.1-70.1c-38.6,0-70,31.4-70,70.1c0,38.6,31.4,70,70,70C816.5,417.1,847.9,385.8,847.9,347.1z M549.6,275.6c27.4-27.4,27.4-71.8,0-99.1c-27.4-27.4-71.7-27.4-99.1,0c-27.4,27.4-27.4,71.8,0,99.1C477.8,303,522.3,303,549.6,275.6z"/></g>
</svg>