<svg width="1920" height="240" viewBox="0 0 1920 240" xmlns="http://www.w3.org/2000/svg"><rect width="1920" height="240" fill="#ffffff"/><path d="M 0,240 C 0,240 0,40 0,40 C 42.66856962783865,42.01193161081819 85.3371392556773,44.023863221636375 126,41 C 166.6628607443227,37.976136778363625 205.32001260512948,29.916478724272686 240,33 C 274.6799873948705,36.083521275727314 305.3828103238048,50.31022188127287 351,50 C 396.6171896761952,49.68977811872713 457.1487460996516,34.84263375063583 500,32 C 542.8512539003484,29.157366249364173 568.0222052775891,38.319243116183834 598,42 C 627.9777947224109,45.680756883816166 662.7624327899919,43.880393784628836 701,42 C 739.2375672100081,40.119606215371164 780.9280635624432,38.15918174530081 821,38 C 861.0719364375568,37.84081825469919 899.5253129602355,39.482879234167896 941,43 C 982.4746870397645,46.517120765832104 1026.9706845966143,51.90930131802761 1068,52 C 1109.0293154033857,52.09069868197239 1146.5919486533069,46.879915493721676 1183,45 C 1219.4080513466931,43.120084506278324 1254.6615207901575,44.571036707085675 1299,40 C 1343.3384792098425,35.428963292914325 1396.7619681860629,24.835937677935604 1437,26 C 1477.2380318139371,27.164062322064396 1504.2906064655913,40.085212581171895 1542,40 C 1579.7093935344087,39.914787418828105 1628.0756059515713,26.8232119973768 1668,28 C 1707.9243940484287,29.1767880026232 1739.4069697281225,44.62193942932092 1780,49 C 1820.5930302718775,53.37806057067908 1870.2965151359388,46.68903028533954 1920,40 C 1920,40 1920,240 1920,240 Z" fill="#000000" opacity="0.09999999999999999"/><path d="M 0,240 C 0,240 0,80 0,80 C 35.20027817339677,77.52675831097957 70.40055634679354,75.05351662195913 104,71 C 137.59944365320646,66.94648337804087 169.59805278622258,61.31269182314303 219,65 C 268.4019472137774,68.68730817685697 335.207232508316,81.69571608546875 379,89 C 422.792767491684,96.30428391453125 443.5730171805132,97.90444383498205 473,94 C 502.4269828194868,90.09555616501795 540.5006987696316,80.68650857460308 587,81 C 633.4993012303684,81.31349142539692 688.4241877409602,91.34952186660561 736,88 C 783.5758122590398,84.65047813339439 823.8025502665272,67.91540395897451 854,68 C 884.1974497334728,68.08459604102549 904.3656111929308,84.98886229749631 948,86 C 991.6343888070692,87.01113770250369 1058.7350049617496,72.12914685104022 1101,66 C 1143.2649950382504,59.87085314895979 1160.6943689600705,62.49455029834286 1197,66 C 1233.3056310399295,69.50544970165714 1288.487519197968,73.89265195558838 1336,79 C 1383.512480802032,84.10734804441162 1423.3555542480585,89.93484187930368 1461,93 C 1498.6444457519415,96.06515812069632 1534.090263809799,96.36798052719695 1570,89 C 1605.909736190201,81.63201947280305 1642.283390512746,66.59323601190852 1683,66 C 1723.716609487254,65.40676398809148 1768.7761741392155,79.259075425169 1809,84 C 1849.2238258607845,88.740924574831 1884.6119129303922,84.3704622874155 1920,80 C 1920,80 1920,240 1920,240 Z" fill="#000000" opacity="0.19999999999999998"/><path d="M 0,240 C 0,240 0,120 0,120 C 29.374798320080487,122.55181725499213 58.74959664016097,125.10363450998427 99,124 C 139.25040335983903,122.89636549001573 190.37641175943662,118.13727921505503 234,114 C 277.6235882405634,109.86272078494497 313.7447563220924,106.34724862979556 360,110 C 406.2552436779076,113.65275137020444 462.6445629521937,124.4737262657627 498,128 C 533.3554370478063,131.5262737342373 547.6769918691328,127.75784630715356 582,126 C 616.3230081308672,124.24215369284644 670.647469571275,124.49488850562307 711,122 C 751.352530428725,119.50511149437693 777.7331298457673,114.26259967035416 817,112 C 856.2668701542327,109.73740032964584 908.4200110456554,110.45471281296025 953,114 C 997.5799889543446,117.54528718703975 1034.586825971611,123.9185490778049 1077,128 C 1119.413174028389,132.0814509221951 1167.2326850679,133.87109087582022 1206,130 C 1244.7673149321,126.12890912417978 1274.4824337567877,116.59708741891421 1309,113 C 1343.5175662432123,109.40291258108579 1382.837579904949,111.74055944852296 1429,118 C 1475.162420095051,124.25944055147704 1528.1672466234158,134.44067478699387 1573,132 C 1617.8327533765842,129.55932521300613 1654.493433601388,114.49674140350164 1693,109 C 1731.506566398612,103.50325859649836 1771.8590189710321,107.57235959899954 1810,111 C 1848.1409810289679,114.42764040100046 1884.070490514484,117.21382020050024 1920,120 C 1920,120 1920,240 1920,240 Z" fill="#000000" opacity="0.3"/><path d="M 0,240 C 0,240 0,160 0,160 C 40.63239607504042,164.98828714113606 81.26479215008084,169.9765742822721 117,171 C 152.73520784991916,172.0234257177279 183.5732274747171,169.08199001204764 221,162 C 258.4267725252829,154.91800998795236 302.4422979510506,143.6954656695372 350,145 C 397.5577020489494,146.3045343304628 448.65758072108054,160.13614730980348 485,163 C 521.3424192789195,165.86385269019652 542.9273791646275,157.75994509124897 586,153 C 629.0726208353725,148.24005490875103 693.6329026204096,146.82407232520058 741,152 C 788.3670973795904,157.17592767479942 818.5410103537342,168.94376560794876 857,167 C 895.4589896462658,165.05623439205124 942.2030559646539,149.4008652430044 973,150 C 1003.7969440353461,150.5991347569956 1018.6467657876503,167.45277342003357 1058,170 C 1097.3532342123497,172.54722657996643 1161.209880884745,160.7880410768613 1209,160 C 1256.790119115255,159.2119589231387 1288.5137106733696,169.39506227252124 1323,166 C 1357.4862893266304,162.60493772747876 1394.7352764217767,145.6317098330537 1433,148 C 1471.2647235782233,150.3682901669463 1510.5451836395237,172.078098395264 1556,172 C 1601.4548163604763,171.921901604736 1653.0839890201282,150.05589658589042 1690,148 C 1726.9160109798718,145.94410341410958 1749.1188602799634,163.69831526117417 1785,169 C 1820.8811397200366,174.30168473882583 1870.4405698600183,167.1508423694129 1920,160 C 1920,160 1920,240 1920,240 Z" fill="#000000" opacity="0.39999999999999997"/><path d="M 0,240 C 0,240 0,200 0,200 C 44.06285343514385,207.8328776453436 88.1257068702877,215.66575529068717 133,214 C 177.8742931297123,212.33424470931283 223.5600259539931,201.16985648259498 260,198 C 296.4399740460069,194.83014351740502 323.63418931373985,199.65481877893293 354,203 C 384.36581068626015,206.34518122106707 417.9032167910476,208.21086840167325 466,208 C 514.0967832089524,207.78913159832675 576.7529435220697,205.50170761437403 617,202 C 657.2470564779303,198.49829238562597 675.0850091206735,193.78230114083067 706,194 C 736.9149908793265,194.21769885916933 780.9070199952366,199.3690878223034 824,200 C 867.0929800047634,200.6309121776966 909.28691089838,196.74134756995582 947,200 C 984.71308910162,203.25865243004418 1017.9453364112435,213.66552189787333 1065,211 C 1112.0546635887565,208.33447810212667 1172.9317434566462,192.59656483855076 1212,193 C 1251.0682565433538,193.40343516144924 1268.3276897621715,209.94821874792348 1301,209 C 1333.6723102378285,208.05178125207652 1381.757497494667,189.61056016975533 1425,187 C 1468.242502505333,184.38943983024467 1506.6423202591614,197.6095405730553 1546,201 C 1585.3576797408386,204.3904594269447 1625.6732214686874,197.95127753802356 1668,196 C 1710.3267785313126,194.04872246197644 1754.6647938660892,196.58534927485042 1797,198 C 1839.3352061339108,199.41465072514958 1879.6676030669555,199.7073253625748 1920,200 C 1920,200 1920,240 1920,240 Z" fill="#000000" opacity="0.49999999999999994"/></svg>