<svg width="54" height="54" viewBox="0 0 54 54" fill="none" xmlns="http://www.w3.org/2000/svg">
<path d="M54 27C54 41.9117 41.9117 54 27 54C12.0883 54 0 41.9117 0 27C0 12.0883 12.0883 0 27 0C41.9117 0 54 12.0883 54 27Z" fill="black"/>
<path d="M26.0556 36.06C25.674 36.06 25.4832 35.8692 25.4832 35.4876V28.4916H18.042C17.6604 28.4916 17.4696 28.3008 17.4696 27.9192V25.0572C17.4696 24.6332 17.6604 24.4212 18.042 24.4212H25.4832V17.4252C25.4832 17.0436 25.674 16.8528 26.0556 16.8528H29.1084C29.49 16.8528 29.6808 17.0436 29.6808 17.4252V24.4212H37.0584C37.4824 24.4212 37.6944 24.6332 37.6944 25.0572V27.9192C37.6944 28.3008 37.4824 28.4916 37.0584 28.4916H29.6808V35.4876C29.6808 35.8692 29.49 36.06 29.1084 36.06H26.0556Z" fill="white"/>
</svg>
