<svg width="20" height="51" viewBox="0 0 20 51" fill="none" xmlns="http://www.w3.org/2000/svg">
<path d="M14.4775 47.9063C13.7184 47.9063 13.0667 47.9456 12.5225 48.0244C11.9782 48.1032 11.5055 48.207 11.1045 48.3359C10.6963 48.4648 10.3418 48.6117 10.041 48.7764C9.74023 48.9411 9.45736 49.1094 9.19238 49.2813C8.92741 49.4531 8.66243 49.6214 8.39746 49.7861C8.13249 49.9508 7.8317 50.0977 7.49512 50.2266C7.15853 50.3555 6.77181 50.4593 6.33496 50.5381C5.89095 50.6169 5.361 50.6563 4.74512 50.6563H2.15625C1.98437 50.6563 1.79101 50.6312 1.57617 50.5811C1.35417 50.5238 1.15006 50.4199 0.963866 50.2695C0.770507 50.1191 0.609374 49.9115 0.480468 49.6465C0.3444 49.3743 0.276367 49.0234 0.276367 48.5938C0.276367 48.1641 0.3444 47.8167 0.480468 47.5518C0.609374 47.2796 0.770507 47.0684 0.963866 46.918C1.15006 46.7676 1.35417 46.6673 1.57617 46.6172C1.79101 46.5599 1.98437 46.5313 2.15625 46.5313H6.96875L6.96875 47.9063H2.15625C1.98437 47.9063 1.84473 47.9277 1.7373 47.9707C1.62272 48.0065 1.53678 48.0566 1.47949 48.1211C1.41504 48.1855 1.37207 48.2607 1.35059 48.3467C1.32194 48.4255 1.30762 48.5078 1.30762 48.5938C1.30762 48.6797 1.32194 48.7656 1.35059 48.8516C1.37207 48.9303 1.41504 49.002 1.47949 49.0664C1.53678 49.1309 1.62272 49.1846 1.7373 49.2275C1.84473 49.2633 1.98437 49.2813 2.15625 49.2813H4.25098C5.06022 49.2813 5.73698 49.2132 6.28125 49.0771C6.82552 48.9411 7.30176 48.7728 7.70996 48.5723C8.111 48.3646 8.47624 48.1426 8.80566 47.9063C9.13509 47.6699 9.49316 47.4515 9.87988 47.251C10.2594 47.0433 10.7034 46.8714 11.2119 46.7354C11.7132 46.5993 12.3398 46.5313 13.0918 46.5313H17.2812C17.3672 46.5313 17.5247 46.542 17.7539 46.5635C17.9759 46.585 18.2051 46.6602 18.4414 46.7891C18.6777 46.918 18.8854 47.1221 19.0645 47.4014C19.2506 47.6807 19.3437 48.0781 19.3437 48.5938C19.3437 49.1094 19.2506 49.5068 19.0645 49.7861C18.8854 50.0654 18.6777 50.2695 18.4414 50.3984C18.2051 50.5273 17.9759 50.6025 17.7539 50.624C17.5247 50.6455 17.3672 50.6563 17.2812 50.6563H11.0937V49.2813H17.2812C17.3672 49.2813 17.471 49.2777 17.5928 49.2705C17.7074 49.2633 17.8184 49.2383 17.9258 49.1953C18.0332 49.1523 18.1263 49.0843 18.2051 48.9912C18.2767 48.8981 18.3125 48.7656 18.3125 48.5938C18.3125 48.4219 18.2767 48.2894 18.2051 48.1963C18.1263 48.1032 18.0332 48.0352 17.9258 47.9922C17.8184 47.9492 17.7074 47.9242 17.5928 47.917C17.471 47.9098 17.3672 47.9063 17.2812 47.9063H14.4775ZM8 36.975V38.35H2.15625C1.98437 38.35 1.84473 38.3715 1.7373 38.4145C1.62272 38.4503 1.53678 38.5004 1.47949 38.5648C1.41504 38.6293 1.37207 38.7045 1.35059 38.7904C1.32194 38.8692 1.30762 38.9516 1.30762 39.0375C1.30762 39.1234 1.32194 39.2094 1.35059 39.2953C1.37207 39.3741 1.41504 39.4457 1.47949 39.5102C1.53678 39.5746 1.62272 39.6283 1.7373 39.6713C1.84473 39.7071 1.98437 39.725 2.15625 39.725L17.2812 39.725C17.3672 39.725 17.471 39.7214 17.5928 39.7143C17.7074 39.7071 17.8184 39.682 17.9258 39.6391C18.0332 39.5961 18.1263 39.5281 18.2051 39.435C18.2767 39.3419 18.3125 39.2094 18.3125 39.0375C18.3125 38.8656 18.2767 38.7331 18.2051 38.64C18.1263 38.5469 18.0332 38.4789 17.9258 38.4359C17.8184 38.393 17.7074 38.3679 17.5928 38.3607C17.471 38.3536 17.3672 38.35 17.2812 38.35L10.0625 38.35V36.975L17.2812 36.975C17.3672 36.975 17.5247 36.9857 17.7539 37.0072C17.9759 37.0287 18.2051 37.1039 18.4414 37.2328C18.6777 37.3617 18.8854 37.5658 19.0645 37.8451C19.2506 38.1244 19.3437 38.5219 19.3437 39.0375C19.3437 39.5531 19.2506 39.9506 19.0645 40.2299C18.8854 40.5092 18.6777 40.7133 18.4414 40.8422C18.2051 40.9711 17.9759 41.0463 17.7539 41.0678C17.5247 41.0893 17.3672 41.1 17.2812 41.1L2.15625 41.1C1.82682 41.1 1.54394 41.0391 1.30762 40.9174C1.06413 40.7956 0.867187 40.6381 0.716796 40.4447C0.566406 40.2442 0.455403 40.0222 0.383788 39.7787C0.312174 39.5352 0.276367 39.2882 0.276367 39.0375C0.276367 38.7725 0.315755 38.5183 0.394531 38.2748C0.473307 38.0242 0.591471 37.8022 0.749023 37.6088C0.906575 37.4154 1.10351 37.2615 1.33984 37.1469C1.57617 37.0323 1.84831 36.975 2.15625 36.975H8ZM8 27.075C8.51562 27.075 8.8737 27.1609 9.07422 27.3328C9.27474 27.5047 9.375 27.7625 9.375 28.1063C9.375 27.9344 9.41439 27.784 9.49316 27.6551C9.57194 27.5262 9.67578 27.4188 9.80469 27.3328C9.93359 27.2469 10.0804 27.1824 10.2451 27.1395C10.4098 27.0965 10.5781 27.075 10.75 27.075L19 27.075V28.45L10.4062 28.45C10.2344 28.45 10.1019 28.4894 10.0088 28.5682C9.91569 28.6469 9.84765 28.7508 9.80469 28.8797C9.76172 29.0086 9.73665 29.1554 9.72949 29.3201C9.72233 29.4848 9.71875 29.6531 9.71875 29.825L19 29.825V31.2L0.437499 31.2V29.825C0.437499 29.4813 0.448242 29.1447 0.469726 28.8152C0.484049 28.4858 0.544921 28.1922 0.652343 27.9344C0.759765 27.6766 0.93164 27.4689 1.16797 27.3113C1.39713 27.1538 1.72656 27.075 2.15625 27.075H8ZM2.15625 28.45C1.98437 28.45 1.85189 28.4751 1.75879 28.5252C1.66569 28.5682 1.59766 28.6434 1.55469 28.7508C1.51172 28.8582 1.48665 29.0014 1.47949 29.1805C1.47233 29.3523 1.46875 29.5672 1.46875 29.825L9.03125 29.825C9.03125 29.6531 9.02767 29.4848 9.02051 29.3201C9.01334 29.1554 8.98828 29.0086 8.94531 28.8797C8.90234 28.7508 8.83431 28.6469 8.74121 28.5682C8.64811 28.4894 8.51562 28.45 8.34375 28.45H2.15625ZM17.2812 17.175C17.3672 17.175 17.5247 17.1857 17.7539 17.2072C17.9759 17.2287 18.2051 17.3039 18.4414 17.4328C18.6777 17.5617 18.8854 17.7658 19.0645 18.0451C19.2506 18.3244 19.3437 18.7219 19.3437 19.2375C19.3437 19.7531 19.2506 20.1506 19.0645 20.4299C18.8854 20.7092 18.6777 20.9133 18.4414 21.0422C18.2051 21.1711 17.9759 21.2463 17.7539 21.2678C17.5247 21.2893 17.3672 21.3 17.2812 21.3L2.15625 21.3C2.09896 21.3 2.01302 21.2964 1.89844 21.2893C1.78385 21.2821 1.65853 21.2606 1.52246 21.2248C1.37923 21.189 1.236 21.1281 1.09277 21.0422C0.942382 20.9563 0.806314 20.8381 0.68457 20.6877C0.562825 20.5373 0.466145 20.3439 0.394531 20.1076C0.315755 19.8713 0.276367 19.5813 0.276367 19.2375C0.276367 18.8938 0.315755 18.6037 0.394531 18.3674C0.466145 18.1311 0.562825 17.9377 0.68457 17.7873C0.806314 17.6369 0.942382 17.5188 1.09277 17.4328C1.236 17.3469 1.37923 17.286 1.52246 17.2502C1.65853 17.2144 1.78385 17.1929 1.89844 17.1857C2.01302 17.1786 2.09896 17.175 2.15625 17.175L17.2812 17.175ZM17.2812 19.925C17.3672 19.925 17.471 19.9214 17.5928 19.9143C17.7074 19.9071 17.8184 19.882 17.9258 19.8391C18.0332 19.7961 18.1263 19.7281 18.2051 19.635C18.2767 19.5419 18.3125 19.4094 18.3125 19.2375C18.3125 19.0656 18.2767 18.9331 18.2051 18.84C18.1263 18.7469 18.0332 18.6789 17.9258 18.6359C17.8184 18.593 17.7074 18.5679 17.5928 18.5607C17.471 18.5536 17.3672 18.55 17.2812 18.55L2.15625 18.55C2.07031 18.55 1.97721 18.5536 1.87695 18.5607C1.77669 18.5679 1.68717 18.593 1.6084 18.6359C1.52246 18.6789 1.45085 18.7469 1.39355 18.84C1.33626 18.9331 1.30762 19.0656 1.30762 19.2375C1.30762 19.4094 1.33626 19.5419 1.39355 19.635C1.45085 19.7281 1.52246 19.7961 1.6084 19.8391C1.68717 19.882 1.77669 19.9071 1.87695 19.9143C1.97721 19.9214 2.07031 19.925 2.15625 19.925L17.2812 19.925ZM0.437499 10.025L17.9687 10.025V8.65001H19V11.4L0.437499 11.4L0.437499 10.025ZM0.437499 1.50001L17.9687 1.50001L17.9687 0.125006H19L19 2.87501L0.437499 2.87501V1.50001Z" fill="black"/>
</svg>
