<svg width="344" height="177" viewBox="0 0 344 177" fill="none" xmlns="http://www.w3.org/2000/svg">
<g clip-path="url(#clip0_133_430)">
<path d="M171.368 43.6813L171.359 43.7417L171.335 43.916L168.805 62.1395L153.315 67.8449L153.072 67.7284L144.399 63.5938L139.915 46.3214L139.608 45.1357L139.701 45.0996L158.887 37.864L171.357 43.6744L171.368 43.6813Z" fill="black"/>
<path d="M153.072 67.7284L144.399 63.5938L139.608 45.1357L139.701 45.0996L152.2 50.3932L153.072 67.7284Z" fill="black"/>
<path opacity="0.2" d="M153.289 67.5177L146.692 54.8273L147.54 51.2296L143.549 46.5127L143.21 46.8025L147.054 51.3467L144.182 63.5422L144.616 63.6455L146.536 55.4931L152.894 67.7246L153.289 67.5177Z" fill="black"/>
<path d="M171.368 43.9049L171.335 43.916L152.2 50.6171L139.915 46.3214L139.608 45.1357L139.701 45.0996L158.887 37.864L171.357 43.6744L171.359 43.7417L171.368 43.9049Z" fill="#3F3D56"/>
<path d="M152.535 50.9525L148.634 47.9322L149.526 44.5761L160.67 40.5486L168.248 40.996L171.257 43.5692L171.479 44.2402L152.535 50.9525Z" fill="black"/>
<path d="M139.83 45.1357L148.634 44.7998L153.403 43.175L160.839 40.5488L162.23 38.5354L158.76 37.9119L139.83 45.1357Z" fill="black"/>
<path d="M157.37 41.5352L152.78 43.1523L152.928 43.5745L157.518 41.9574L157.37 41.5352Z" fill="#CCCCCC"/>
<path d="M96.9072 15.3696L94.7551 26.1707L104.798 33.7318L109.461 19.69L96.9072 15.3696Z" fill="#9F616A"/>
<path d="M104.977 25.2707C110.326 25.2707 114.661 20.9184 114.661 15.5496C114.661 10.1807 110.326 5.82837 104.977 5.82837C99.6289 5.82837 95.2932 10.1807 95.2932 15.5496C95.2932 20.9184 99.6289 25.2707 104.977 25.2707Z" fill="#9F616A"/>
<path d="M83.9952 89.2054C84.0394 92.3417 97.6469 127.247 95.7576 131.792C92.7794 134.849 86.3732 151.114 83.6363 155.454C83.2778 155.453 81.4845 160.854 81.4845 160.854C81.4845 160.854 85.7885 167.695 90.4512 164.815C96.314 150.972 110.997 143.252 111.256 125.211C111.965 130.91 114.057 167.492 114.057 167.492C114.057 167.492 113.656 167.663 122.689 168.532C124.091 147.3 129.822 111.178 116.992 88.485C113.047 86.6851 83.9952 89.2054 83.9952 89.2054Z" fill="#2F2E41"/>
<path d="M114.057 166.78C113.637 167.59 110.63 175.062 113.367 175.811C116.522 176.675 119.582 175.464 119.582 175.464C119.582 175.464 125.106 177.197 128.487 174.995C130.065 173.411 129.706 171.971 128.953 170.927C128.57 170.412 128.081 169.988 127.518 169.684C126.955 169.379 126.332 169.201 125.694 169.163C123.978 169.041 123.434 168.721 123.237 167.932C122.95 166.78 114.057 166.78 114.057 166.78Z" fill="#2F2E41"/>
<path d="M84.545 160.255C84.545 160.255 76.8362 162.699 78.4591 165.55C79.5131 167.317 81.0521 168.742 82.8918 169.653C82.8918 169.653 84.4995 176.307 88.9625 176.307C91.194 176.307 91.9547 175.034 92.1576 173.761C92.2493 173.126 92.2018 172.478 92.0183 171.863C91.8348 171.248 91.5198 170.681 91.0953 170.201C89.9686 168.897 89.8082 168.284 90.2251 167.587C90.8337 166.568 84.545 160.255 84.545 160.255Z" fill="#2F2E41"/>
<path d="M118.787 90.2595C118.787 90.2595 117.351 93.1397 111.613 92.0583C105.874 90.9804 83.2795 92.0583 83.2795 92.0583C83.2795 92.0583 84.5329 66.3164 81.6636 50.8338C78.7944 35.3512 90.0918 26.5302 90.0918 26.5302L93.6791 22.929C97.2665 22.572 104.842 33.7464 104.842 33.7464C107.335 34.1658 109.662 44.8029 111.647 54.8682C111.765 55.4435 111.875 56.012 111.986 56.5804C112.901 61.2733 114.175 66.4966 114.938 71.1861C114.993 71.5188 115.045 71.8481 115.093 72.1774C116 78.267 117.233 84.3031 118.787 90.2595Z" fill="#E6E6E6"/>
<path d="M93.6482 9.49659C93.6482 9.49659 91.8376 5.49803 96.5451 3.6805C96.5451 3.6805 100.528 -2.86261 108.495 1.49947C108.495 1.49947 113.927 3.68049 113.927 9.49659C113.927 15.3127 115.737 16.4032 115.737 16.4032C115.737 16.4032 113.041 13.6265 112.317 11.4454C111.592 9.26441 105.96 8.76959 103.787 10.9506C101.615 13.1317 96.183 12.7681 96.183 12.7681L96.5451 20.7653C96.5451 20.7653 94.7346 16.0397 94.0103 16.0397C93.2861 16.0397 92.5619 9.49659 93.6482 9.49659Z" fill="#2F2E41"/>
<path opacity="0.2" d="M114.938 71.1861C106.382 66.5174 92.5225 56.2789 88.0512 50.7402C82.1574 43.4443 88.5864 37.8987 88.5864 37.8987C95.8751 33.282 104.59 49.1216 104.59 49.1216L111.647 54.8682C111.765 55.4435 111.875 56.012 111.986 56.5804C112.901 61.2733 114.175 66.4966 114.938 71.1861Z" fill="black"/>
<path d="M140.479 65.8059C140.479 65.8059 153.199 70.9895 155.292 65.1625C157.386 59.3354 145.25 59.4354 145.25 59.4354L140.485 60.1131L140.479 65.8059Z" fill="#9F616A"/>
<path d="M86.9559 35.5273C86.9559 35.5273 80.5301 41.0762 86.4197 48.3697C92.3093 55.6632 119.376 71.2468 119.376 71.2468L137.007 66.4622L141.997 67.3787L142.937 57.9753L135.587 58.6956L116.928 54.7074L105.03 45.016C105.03 45.016 94.2427 30.9131 86.9559 35.5273Z" fill="#E6E6E6"/>
<path opacity="0.2" d="M110.365 102.372L111.489 128.742L108.639 102.372H110.365Z" fill="black"/>
<path d="M231.741 83.5093L221.535 85.8831C220.746 86.0667 219.916 85.9341 219.223 85.5134C218.529 85.0928 218.026 84.4172 217.821 83.6302C217.702 83.1738 217.687 82.6963 217.778 82.2335C217.869 81.7706 218.063 81.3344 218.346 80.9576C218.629 80.5808 218.993 80.2732 219.411 80.0578C219.829 79.8424 220.29 79.7248 220.76 79.7138L230.618 79.4836L231.741 83.5093Z" fill="#FFB9B9"/>
<path d="M230.658 85.0127L228.391 78.1867L241.979 73.5275L238.373 41.6453C244.866 42.8304 247.957 47.956 247.667 54.5748L249.425 76.3303L230.658 85.0127Z" fill="#3F3D56"/>
<path d="M240.046 34.6162H262.247V23.5335C262.254 20.5403 261.086 17.6648 258.995 15.531C257.974 14.4798 256.753 13.6447 255.405 13.0753C254.057 12.5058 252.608 12.2135 251.146 12.2156C248.224 12.221 245.423 13.3803 243.346 15.4428C241.27 17.5053 240.086 20.3053 240.05 23.2375C240.048 23.3389 240.046 23.4354 240.046 23.5335L240.046 34.6162Z" fill="#2F2E41"/>
<path d="M271.529 164.853L264.433 164.036L255.94 106.461L238.373 164.269L230.695 164.503L239.42 93.381L238.14 77.1479L259.895 70.2576C275.304 81.0552 274.985 119.193 271.529 164.853Z" fill="#2F2E41"/>
<path d="M249.192 32.4193C253.818 32.4193 257.569 28.6547 257.569 24.0108C257.569 19.3669 253.818 15.6023 249.192 15.6023C244.566 15.6023 240.816 19.3669 240.816 24.0108C240.816 28.6547 244.566 32.4193 249.192 32.4193Z" fill="#FFB9B9"/>
<path d="M257.569 39.1929L243.375 42.93C245.767 38.3136 246.532 34.0042 245.237 30.0837L255.242 28.4487C254.599 32.1975 255.433 36.0505 257.569 39.1929Z" fill="#FFB9B9"/>
<path d="M262.338 73.4107C254.378 78.4928 245.105 84.3311 238.256 78.666L234.999 62.7833C232.41 60.4684 233.558 53.3252 237.058 43.1435C237.28 42.4972 237.646 41.9102 238.128 41.427C238.61 40.9438 239.195 40.577 239.839 40.3546L245.237 38.4921C247.629 40.5114 251.55 39.307 256.173 36.6235L261.524 38.025L263.851 55.5427C260.492 60.5943 261.079 67.3206 262.338 73.4107Z" fill="#3F3D56"/>
<path d="M255.707 80.2393L245.501 82.6131C244.712 82.7967 243.882 82.6641 243.188 82.2434C242.495 81.8228 241.992 81.1472 241.786 80.3602C241.667 79.9038 241.653 79.4263 241.744 78.9634C241.835 78.5006 242.029 78.0644 242.312 77.6876C242.594 77.3108 242.959 77.0032 243.377 76.7878C243.795 76.5723 244.256 76.4547 244.726 76.4438L254.584 76.2136L255.707 80.2393Z" fill="#FFB9B9"/>
<path d="M270.296 175.861C269.104 176.407 268.105 173.022 267.1 174.014C264.288 176.788 257.542 176.167 257.542 176.167C257.315 176.094 257.106 175.975 256.926 175.818C256.747 175.662 256.601 175.47 256.497 175.255C256.394 175.04 256.335 174.806 256.324 174.568C256.313 174.329 256.35 174.091 256.434 173.867C256.534 173.599 256.697 173.36 256.909 173.17C257.122 172.98 257.377 172.844 257.653 172.775L260.644 172.024L265.34 163.734L270.458 163.084L270.587 163.296C271.576 164.897 272.214 166.691 272.458 168.559C272.702 170.426 272.546 172.325 272.001 174.127C271.575 175.496 270.996 175.54 270.296 175.861Z" fill="#2F2E41"/>
<path d="M236.558 175.861C235.366 176.407 234.367 173.022 233.362 174.014C230.55 176.788 223.804 176.167 223.804 176.167C223.577 176.094 223.368 175.975 223.188 175.818C223.009 175.662 222.863 175.47 222.759 175.255C222.656 175.04 222.596 174.806 222.586 174.568C222.575 174.329 222.612 174.091 222.696 173.867C222.796 173.599 222.959 173.36 223.171 173.17C223.384 172.98 223.639 172.844 223.915 172.775L226.906 172.024L231.602 163.734L236.72 163.084L236.849 163.296C237.838 164.897 238.476 166.691 238.72 168.559C238.964 170.426 238.808 172.325 238.263 174.127C237.837 175.496 237.258 175.54 236.558 175.861Z" fill="#2F2E41"/>
<path d="M259.012 16.9975L256.902 23.7352L238.663 23.4098C238.725 21.0525 239.519 18.7735 240.935 16.8913C242.35 15.0091 244.316 13.6177 246.557 12.9114C248.798 12.2051 251.204 12.2192 253.436 12.9518C255.669 13.6844 257.619 15.0988 259.012 16.9975Z" fill="#2F2E41"/>
<path d="M254.623 81.7429L252.357 74.9169L265.945 70.2577L260.805 37.6846C263.945 38.2577 266.772 39.9531 268.762 42.4572C270.753 44.9612 271.773 48.1044 271.633 51.305L273.391 73.0605L254.623 81.7429Z" fill="#3F3D56"/>
<path d="M222.168 63.3404L208.035 66.3915L205.147 52.4329L210.466 45.2628L215.253 44.3474L220.572 49.763L222.168 63.3404Z" fill="#CCCCCC"/>
<path d="M215.633 63.9489H207.122L205.962 58.1988L204.692 51.8977L206.591 49.1526L210.24 50.2964L214.19 55.79L215.181 61.3876L215.25 61.7862L215.633 63.9489Z" fill="#E6E6E6"/>
<path d="M229.918 60.5943L220.116 61.7384L221.864 49.2293L225.815 45.644L229.234 46.4832L231.514 51.7463L229.918 60.5943Z" fill="#CCCCCC"/>
<path d="M231.208 53.194L230.297 58.2301L227.335 75.3903L215.937 79.0539L215.543 78.839L209.401 75.4665L205.945 58.192L205.962 58.1989L215.101 61.8902L215.181 61.3877L215.236 61.0237L215.937 56.5526L219.051 53.194L229.461 50.6777L231.208 53.194Z" fill="#E6E6E6"/>
<path d="M223.991 52.6617C225.334 52.6617 226.423 51.5689 226.423 50.2209C226.423 48.8728 225.334 47.78 223.991 47.78C222.649 47.78 221.56 48.8728 221.56 50.2209C221.56 51.5689 222.649 52.6617 223.991 52.6617Z" fill="#E6E6E6"/>
<path d="M218.013 51.4806L212.467 52.4722L212.493 52.6223L218.04 51.6308L218.013 51.4806Z" fill="white"/>
<path d="M215.543 78.8389L209.401 75.4664L205.945 58.1919L205.962 58.1988L204.692 51.8977L206.591 49.1526L210.24 50.2964L214.19 55.79L215.181 61.3876L215.236 61.0236L215.25 61.7862L215.288 63.9489L215.543 78.8389Z" fill="#F2F2F2"/>
<path d="M209.476 75.4879L209.329 75.4484L212.359 64.0432L208.889 59.4518L209.011 59.3596L212.525 64.0103L209.476 75.4879Z" fill="#CCCCCC"/>
<path d="M211.186 68.9768L211.05 69.043L215.869 79.0863L216.005 79.0201L211.186 68.9768Z" fill="#CCCCCC"/>
<path opacity="0.2" d="M230.611 57.1849L230.04 60.3496L230.011 60.3527L227.456 75.1472L216.059 78.8085L215.99 78.8413L215.945 78.746L209.524 75.2235L209.45 75.2037L209.49 75.0542L206.067 57.9469L206.084 57.9538L205.705 56.0759L205.988 55.6662L206.865 54.4001L210.512 55.5442L214.463 61.0361L214.521 61.3626L214.936 63.7058L215.102 64.647L215.454 66.6356L215.788 64.4991L215.908 63.7302L216.211 61.7989L219.326 58.4427L220.711 58.1079L221.676 57.8745L223.002 57.5541C222.591 57.3031 222.263 56.935 222.06 56.4967C221.857 56.0583 221.788 55.5694 221.863 55.0918C221.937 54.6142 222.151 54.1695 222.477 53.8141C222.803 53.4587 223.227 53.2085 223.695 53.0953C224.164 52.982 224.655 53.0109 225.106 53.1781C225.558 53.3454 225.95 53.6435 226.233 54.0347C226.516 54.426 226.677 54.8926 226.695 55.3757C226.713 55.8587 226.588 56.3362 226.336 56.7478L229.736 55.9256L230.574 57.133L230.611 57.1849Z" fill="black"/>
<path d="M215.907 69.9606H207.396L204.965 57.9089L206.865 55.1628L210.512 56.307L214.463 61.7988L215.907 69.9606Z" fill="#E6E6E6"/>
<path d="M227.608 81.4021L216.211 85.0632L209.676 81.4783L206.219 64.2017L215.375 67.901L216.211 62.5616L219.326 59.2055L229.736 56.6885L231.484 59.2055L230.572 64.2398L227.608 81.4021Z" fill="#E6E6E6"/>
<path d="M224.265 58.6715C225.608 58.6715 226.697 57.5787 226.697 56.2306C226.697 54.8826 225.608 53.7898 224.265 53.7898C222.922 53.7898 221.833 54.8826 221.833 56.2306C221.833 57.5787 222.922 58.6715 224.265 58.6715Z" fill="#E6E6E6"/>
<path d="M215.823 84.7312L209.681 81.3588L206.225 64.0842L206.242 64.0912L204.971 57.79L206.87 55.0449L210.52 56.1887L214.47 61.6823L215.461 67.2799L215.516 66.916L215.53 67.6785L215.568 69.8413L215.823 84.7312Z" fill="#F2F2F2"/>
<path d="M209.749 81.4977L209.603 81.4585L212.632 70.053L209.163 65.4616L209.284 65.3694L212.799 70.0204L209.749 81.4977Z" fill="#CCCCCC"/>
<path d="M211.46 74.9868L211.323 75.053L216.142 85.0963L216.279 85.0301L211.46 74.9868Z" fill="#CCCCCC"/>
<path d="M311.248 161.201L297.115 164.253L294.228 150.294L299.547 143.124L304.334 142.208L309.653 147.624L311.248 161.201Z" fill="#CCCCCC"/>
<path d="M304.714 161.81H296.203L295.043 156.06L293.772 149.759L295.671 147.014L299.321 148.157L303.271 153.651L304.262 159.249L304.331 159.647L304.714 161.81Z" fill="#E6E6E6"/>
<path d="M318.999 158.455L309.197 159.6L310.945 147.09L314.896 143.505L318.315 144.344L320.595 149.607L318.999 158.455Z" fill="#CCCCCC"/>
<path d="M320.289 151.055L319.378 156.091L316.415 173.251L305.018 176.915L304.624 176.7L298.482 173.328L295.025 156.053L295.043 156.06L304.182 159.751L304.261 159.249L304.317 158.885L305.018 154.414L308.132 151.055L318.542 148.539L320.289 151.055Z" fill="#E6E6E6"/>
<path d="M313.072 150.523C314.415 150.523 315.504 149.43 315.504 148.082C315.504 146.734 314.415 145.641 313.072 145.641C311.729 145.641 310.641 146.734 310.641 148.082C310.641 149.43 311.729 150.523 313.072 150.523Z" fill="#E6E6E6"/>
<path d="M307.094 149.342L301.547 150.333L301.574 150.483L307.121 149.492L307.094 149.342Z" fill="white"/>
<path d="M304.624 176.7L298.482 173.328L295.025 156.053L295.043 156.06L293.772 149.759L295.671 147.014L299.321 148.157L303.271 153.651L304.262 159.249L304.317 158.885L304.331 159.647L304.369 161.81L304.624 176.7Z" fill="#F2F2F2"/>
<path d="M298.557 173.349L298.41 173.31L301.439 161.904L297.97 157.313L298.091 157.221L301.605 161.871L298.557 173.349Z" fill="#CCCCCC"/>
<path d="M300.267 166.838L300.13 166.904L304.949 176.947L305.086 176.881L300.267 166.838Z" fill="#CCCCCC"/>
<path d="M339.176 175.584H329.853L328.472 157.561H340.557L339.176 175.584Z" fill="#E6E6E6"/>
<path d="M340.729 164.839H328.299V167.612H340.729V164.839Z" fill="#F2F2F2"/>
<path d="M343.923 158.855L341.936 158.267L341.91 157.537L333.078 154.925L332.662 155.525L330.675 154.937L329.427 156.736L344 161.045L343.923 158.855Z" fill="#CCCCCC"/>
<path d="M51.5583 152.836L51.5493 152.897L51.5248 153.071L48.995 171.295L33.5046 177L33.2619 176.884L24.5893 172.749L20.1049 155.476L19.7976 154.291L19.8912 154.255L39.0766 147.019L51.5469 152.83L51.5583 152.836Z" fill="black"/>
<path d="M33.2619 176.884L24.5893 172.749L19.7976 154.291L19.8912 154.255L32.3904 159.549L33.2619 176.884Z" fill="black"/>
<path opacity="0.2" d="M33.4795 176.673L26.8827 163.982L27.73 160.385L23.7396 155.668L23.3999 155.957L27.2442 160.502L24.3725 172.697L24.8065 172.8L26.7259 164.648L33.0841 176.88L33.4795 176.673Z" fill="black"/>
<path d="M51.5583 153.06L51.5248 153.071L32.3904 159.772L20.1049 155.476L19.7976 154.291L19.8912 154.255L39.0766 147.019L51.5469 152.83L51.5493 152.897L51.5583 153.06Z" fill="#3F3D56"/>
<path d="M32.7246 160.108L28.8241 157.087L29.7156 153.731L40.8596 149.704L48.4377 150.152L51.4468 152.724L51.6695 153.396L32.7246 160.108Z" fill="black"/>
<path d="M20.0204 154.291L28.8242 153.955L33.5934 152.33L41.0292 149.704L42.42 147.69L38.95 147.067L20.0204 154.291Z" fill="black"/>
<path d="M37.5605 150.69L32.9701 152.307L33.1177 152.73L37.7081 151.113L37.5605 150.69Z" fill="#CCCCCC"/>
<path d="M12.4298 175.999H3.10741L1.72632 157.975H13.8109L12.4298 175.999Z" fill="black"/>
<path d="M13.9836 165.254H1.55371V168.027H13.9836V165.254Z" fill="#E6E6E6"/>
<path d="M14.5015 156.936H12.4298L12.1995 156.242H2.99248L2.76219 156.936H0.690547L0 159.015H15.192L14.5015 156.936Z" fill="#3F3D56"/>
<path d="M279.098 175.786H69.8291V176.479H279.098V175.786Z" fill="#3F3D56"/>
</g>
<defs>
<clipPath id="clip0_133_430">
<rect width="344" height="177" fill="white"/>
</clipPath>
</defs>
</svg>
