<svg width="1920" height="1080" viewBox="0 0 1920 1080" xmlns="http://www.w3.org/2000/svg"><rect width="1920" height="1080" fill="#ffffff"/><path d="M 0,1080 C 0,1080 0,180 0,180 C 80.06666666666666,183.8923076923077 160.13333333333333,187.7846153846154 261,167 C 361.8666666666667,146.2153846153846 483.5333333333334,100.75384615384615 610,116 C 736.4666666666666,131.24615384615385 867.7333333333331,207.2 989,229 C 1110.2666666666669,250.8 1221.5333333333335,218.44615384615386 1325,199 C 1428.4666666666665,179.55384615384614 1524.1333333333332,173.0153846153846 1622,172 C 1719.8666666666668,170.9846153846154 1819.9333333333334,175.4923076923077 1920,180 C 1920,180 1920,1080 1920,1080 Z" fill="#000000" opacity="0.09999999999999999"/><path d="M 0,1080 C 0,1080 0,360 0,360 C 125.96666666666667,391.3897435897436 251.93333333333334,422.7794871794872 368,425 C 484.06666666666666,427.2205128205128 590.2333333333333,400.27179487179484 674,368 C 757.7666666666667,335.72820512820516 819.1333333333333,298.1333333333333 907,310 C 994.8666666666667,321.8666666666667 1109.2333333333333,383.19487179487174 1243,383 C 1376.7666666666667,382.80512820512826 1529.9333333333334,321.08717948717947 1646,307 C 1762.0666666666666,292.91282051282053 1841.0333333333333,326.45641025641027 1920,360 C 1920,360 1920,1080 1920,1080 Z" fill="#000000" opacity="0.19999999999999998"/><path d="M 0,1080 C 0,1080 0,540 0,540 C 92.0230769230769,508.4897435897436 184.0461538461538,476.9794871794872 284,486 C 383.9538461538462,495.0205128205128 491.8384615384615,544.5717948717949 601,543 C 710.1615384615385,541.4282051282051 820.6000000000001,488.73333333333335 931,476 C 1041.3999999999999,463.26666666666665 1151.7615384615383,490.49487179487187 1278,520 C 1404.2384615384617,549.5051282051281 1546.3538461538462,581.2871794871795 1656,585 C 1765.6461538461538,588.7128205128205 1842.8230769230768,564.3564102564103 1920,540 C 1920,540 1920,1080 1920,1080 Z" fill="#000000" opacity="0.3"/><path d="M 0,1080 C 0,1080 0,720 0,720 C 86.0974358974359,729.2358974358974 172.1948717948718,738.4717948717949 265,755 C 357.8051282051282,771.5282051282051 457.31794871794875,795.348717948718 583,787 C 708.6820512820512,778.651282051282 860.5333333333333,738.1333333333333 977,727 C 1093.4666666666667,715.8666666666667 1174.548717948718,734.1179487179487 1278,730 C 1381.451282051282,725.8820512820513 1507.2717948717948,699.3948717948718 1618,694 C 1728.7282051282052,688.6051282051282 1824.3641025641027,704.302564102564 1920,720 C 1920,720 1920,1080 1920,1080 Z" fill="#000000" opacity="0.39999999999999997"/><path d="M 0,1080 C 0,1080 0,900 0,900 C 98.08205128205125,934.4589743589744 196.1641025641025,968.9179487179488 305,955 C 413.8358974358975,941.0820512820512 533.4256410256411,878.7871794871795 635,866 C 736.5743589743589,853.2128205128205 820.1333333333332,889.9333333333333 934,915 C 1047.8666666666668,940.0666666666667 1192.041025641026,953.4794871794873 1314,956 C 1435.958974358974,958.5205128205127 1535.702564102564,950.148717948718 1633,939 C 1730.297435897436,927.851282051282 1825.148717948718,913.925641025641 1920,900 C 1920,900 1920,1080 1920,1080 Z" fill="#000000" opacity="0.49999999999999994"/></svg>